<?xml version="1.0" standalone="no"?>
<!DOCTYPE svg PUBLIC "-//W3C//DTD SVG 20010904//EN"
 "http://www.w3.org/TR/2001/REC-SVG-20010904/DTD/svg10.dtd">
<svg version="1.0" xmlns="http://www.w3.org/2000/svg"
 width="394.000000pt" height="301.000000pt" viewBox="0 0 394.000000 301.000000"
 preserveAspectRatio="xMidYMid meet">
<metadata>
Created by potrace 1.16, written by Peter Selinger 2001-2019
</metadata>
<g transform="translate(0.000000,301.000000) scale(0.100000,-0.100000)"
fill="#222211" stroke="none">
<path d="M1209 2903 c-73 -76 -107 -126 -148 -215 -52 -112 -73 -209 -72 -339
0 -229 80 -405 255 -566 l64 -59 -80 -18 c-101 -22 -291 -116 -395 -195 -151
-114 -257 -243 -358 -433 -82 -156 -128 -186 -400 -266 -58 -17 -42 -37 47
-61 92 -24 201 -77 260 -124 22 -17 65 -67 95 -111 69 -99 178 -210 262 -266
206 -138 477 -211 735 -197 362 20 723 237 893 535 l30 53 7 -38 c3 -21 6 -84
6 -140 l0 -103 710 0 710 0 0 650 0 650 -335 0 c-192 0 -335 4 -335 9 0 5 40
30 89 55 171 88 283 198 316 309 19 66 19 72 -6 125 -25 50 -64 72 -129 72
-96 0 -194 -83 -270 -231 -39 -75 -50 -90 -55 -74 -4 11 -25 57 -47 102 -63
131 -153 203 -254 203 -92 0 -140 -58 -132 -159 3 -31 14 -76 26 -101 47 -98
169 -204 310 -269 28 -14 52 -28 52 -33 0 -4 -147 -9 -326 -10 l-326 -3 -2
-105 c-2 -58 -4 -148 -5 -200 l-2 -95 -19 24 c-11 13 -20 30 -20 37 0 22 -148
172 -211 215 l-56 38 -5 188 c-8 275 -49 447 -155 643 -91 170 -185 282 -321
383 -48 36 -118 81 -157 100 -64 32 -163 67 -190 67 -6 0 -31 -21 -56 -47z
m185 -227 c279 -146 504 -487 556 -843 12 -86 13 -203 1 -203 -27 0 -258 73
-303 96 -282 142 -469 478 -430 770 15 114 61 214 98 214 7 0 42 -15 78 -34z
m155 -1095 c12 -8 12 -21 -3 -93 -27 -127 -33 -355 -11 -475 53 -295 208 -571
378 -672 20 -13 37 -27 37 -32 0 -16 -67 -42 -92 -36 -38 10 -140 108 -197
191 -173 251 -265 601 -232 887 10 86 35 211 48 232 6 10 55 9 72 -2z m-379
-35 c0 -3 -9 -42 -20 -88 -27 -111 -36 -332 -21 -466 34 -287 190 -617 365
-768 31 -26 53 -51 50 -56 -3 -4 -28 -8 -55 -8 -48 0 -52 2 -117 68 -150 150
-261 381 -318 661 -41 202 -32 493 18 599 14 29 98 78 98 58z m1780 -262 c4
-184 8 -245 19 -257 16 -20 72 -22 89 -5 9 9 12 81 12 261 l0 249 58 -4 57 -4
6 -75 c4 -40 7 -151 8 -244 1 -118 5 -175 13 -183 16 -16 73 -15 87 1 7 9 12
98 13 258 l3 244 195 0 195 0 3 -522 2 -523 -590 0 c-464 0 -591 3 -595 13 -6
19 -13 1026 -7 1032 3 3 101 4 216 3 l211 -3 5 -241z"/>
</g>
</svg>
